<svg width="135" height="24" viewBox="0 0 135 24" fill="none" xmlns="http://www.w3.org/2000/svg">
<g clip-path="url(#clip0_614_5191)">
<path d="M33.9412 0.388889C33.9412 0.51074 33.8837 0.616497 33.7963 0.687768L33.7619 0.713058L0.604656 23.9291C0.542581 23.9705 0.46901 23.9957 0.388543 23.9957C0.17243 23.9957 0 23.821 0 23.6095C0 23.5313 0.0229907 23.4624 0.064374 23.4003C0.064374 23.398 0.0666731 23.3934 0.0666731 23.3911C0.0896638 23.3681 0.112654 23.3428 0.133346 23.3129C1.59785 21.5771 6.4397 15.1167 4.79356 7.20793C4.2004 4.35709 2.94051 2.14768 1.84615 0.660179C1.83006 0.637189 1.81397 0.614198 1.79557 0.593506C1.75649 0.536029 1.7335 0.464758 1.7335 0.38659C1.7335 0.170477 1.90823 -0.00195312 2.12204 -0.00195312H33.548C33.7642 -0.00195312 33.9366 0.172776 33.9366 0.38659L33.9412 0.388889Z" fill="#FF4D07"/>
<path d="M4.67578 23.6127C4.67578 23.4909 4.73326 23.3851 4.82062 23.3138L4.85511 23.2886L38.01 0.0725324C38.0721 0.0311492 38.1457 0.00585938 38.2261 0.00585938C38.4422 0.00585938 38.6147 0.180589 38.6147 0.392103C38.6147 0.470272 38.5917 0.539244 38.5503 0.601319C38.5503 0.603618 38.548 0.608216 38.548 0.610515C38.525 0.633506 38.502 0.658795 38.4813 0.688683C37.0168 2.42448 32.175 8.88487 33.8211 16.7937C34.4143 19.6445 35.6742 21.8539 36.7685 23.3414C36.7846 23.3644 36.8007 23.3874 36.8191 23.4081C36.8582 23.4656 36.8812 23.5368 36.8812 23.615C36.8812 23.8311 36.7064 24.0036 36.4926 24.0036H5.06432C4.84821 24.0036 4.67578 23.8288 4.67578 23.615V23.6127Z" fill="#FF4D07"/>
<path d="M55.6837 6.24493L57.0907 6.76222L53.2329 18.453C53.1478 18.7105 53.0835 18.9358 53.0467 19.1312C53.0099 19.3266 52.9892 19.5129 52.9892 19.6922V20.2072C52.9892 20.4739 52.9294 20.6785 52.8076 20.821C52.688 20.9636 52.5225 21.0348 52.3179 21.0348H50.1498C49.9337 21.0348 49.7659 20.9636 49.6394 20.821C49.5153 20.6785 49.4532 20.4739 49.4532 20.2072V19.6922C49.4532 19.5451 49.4348 19.3933 49.3957 19.2347C49.3567 19.076 49.2992 18.8875 49.221 18.6737L44.9378 5.49773C44.8436 5.22184 44.7378 5.01722 44.6229 4.88388C44.5056 4.75053 44.3493 4.64477 44.1516 4.5666L43.6343 4.41257C43.4526 4.34359 43.3147 4.24703 43.2158 4.12288C43.117 3.99873 43.0664 3.84929 43.0664 3.67686C43.0664 3.45385 43.1377 3.27912 43.2802 3.15497C43.4228 3.03083 43.6343 2.96875 43.9194 2.96875H49.0026C49.2946 2.96875 49.5084 3.03083 49.6417 3.15497C49.7751 3.27912 49.8418 3.45385 49.8418 3.67686C49.8418 4.03092 49.644 4.26083 49.2486 4.37348L48.3704 4.50223C48.1382 4.5712 47.9979 4.69535 47.9519 4.87698C47.9037 5.05861 47.9519 5.37128 48.1014 5.8196L52.334 18.9818L51.1982 19.8324L55.6883 6.24493H55.6837ZM63.8385 3.67686C63.8385 3.45385 63.9098 3.27912 64.0523 3.15497C64.1949 3.03083 64.4064 2.96875 64.6915 2.96875H68.5746C68.8666 2.96875 69.0827 3.03312 69.2206 3.16187C69.3586 3.29062 69.4276 3.46305 69.4276 3.67916C69.4276 3.86079 69.377 4.00333 69.2735 4.11139C69.1701 4.21944 69.0114 4.31601 68.7953 4.40107L68.278 4.55511C68.055 4.63328 67.8734 4.76203 67.7354 4.94135C67.5975 5.12298 67.4595 5.42646 67.3216 5.85638L63.3465 18.4507C63.2683 18.7082 63.2086 18.9335 63.1649 19.1289C63.1212 19.322 63.1005 19.5106 63.1005 19.6899V20.1934C63.1005 20.4693 63.0407 20.6785 62.9189 20.8187C62.7993 20.9613 62.6384 21.0326 62.4407 21.0326H60.2589C60.0427 21.0326 59.8726 20.9613 59.7439 20.8187C59.6151 20.6762 59.5507 20.4693 59.5507 20.1934V19.6899C59.5507 19.5428 59.5323 19.391 59.4933 19.2324C59.4542 19.0737 59.4013 18.8829 59.3323 18.6576L55.2285 5.49543C55.1342 5.20345 55.0423 4.98274 54.9503 4.83789C54.8606 4.69075 54.725 4.585 54.5434 4.51602L54.0284 4.36199C53.8559 4.29301 53.718 4.20565 53.6145 4.09759C53.5111 3.98954 53.4605 3.84929 53.4605 3.67916C53.4605 3.45615 53.5318 3.28142 53.6743 3.15727C53.8169 3.03312 54.0284 2.97105 54.3135 2.97105H59.2036C59.4956 2.97105 59.7117 3.03312 59.8496 3.15727C59.9876 3.28142 60.0565 3.45615 60.0565 3.67916C60.0565 3.86079 60.0037 4.00793 59.8956 4.12518C59.7875 4.24244 59.6312 4.3344 59.4243 4.40337L58.5208 4.54591C58.3046 4.59649 58.1759 4.71374 58.1345 4.89537C58.0908 5.077 58.1391 5.38507 58.2771 5.8242L62.3556 18.9864L61.3233 19.837L65.7743 5.73223C65.8939 5.34599 65.9261 5.0655 65.8709 4.89307C65.8157 4.72064 65.6318 4.59189 65.3214 4.50683L64.4041 4.36429C64.2317 4.30451 64.0937 4.21715 63.9902 4.10679C63.8868 3.99414 63.8362 3.85389 63.8362 3.68146L63.8385 3.67686Z" fill="black"/>
<path d="M78.7204 13.3279C78.7204 13.8452 78.571 14.2361 78.2744 14.5027C77.9778 14.7694 77.5502 14.9028 76.9915 14.9028H69.0551V13.8061H75.1453C75.6879 13.8061 75.9592 13.5647 75.9592 13.0842C75.9592 12.2152 75.7086 11.514 75.212 10.9806C74.7131 10.4472 74.0671 10.1805 73.2762 10.1805C72.6394 10.1805 72.0692 10.3506 71.5657 10.6909C71.0622 11.0311 70.6714 11.5117 70.3909 12.137C70.1104 12.76 69.9724 13.5026 69.9724 14.3625C69.9724 15.9627 70.3702 17.1858 71.1657 18.0341C71.9611 18.8825 72.9957 19.3055 74.2694 19.3055C75.1476 19.3055 75.8834 19.1078 76.4765 18.7123C77.0697 18.3169 77.5042 17.8571 77.7801 17.3306C77.8996 17.1927 78.0008 17.0915 78.0836 17.0271C78.1663 16.9627 78.2583 16.9352 78.3617 16.9421C78.4813 16.9421 78.5779 16.988 78.6514 17.0777C78.725 17.1674 78.7618 17.303 78.7618 17.4846C78.7365 18.1468 78.5043 18.7698 78.0652 19.3561C77.626 19.9423 77.0214 20.416 76.2512 20.7815C75.481 21.1471 74.589 21.331 73.5728 21.331C72.3175 21.331 71.2323 21.0712 70.3219 20.5493C69.4092 20.0297 68.7057 19.3032 68.2114 18.3744C67.7171 17.4456 67.4688 16.3742 67.4688 15.1603C67.4688 13.9464 67.7193 12.8451 68.2228 11.8772C68.7263 10.9093 69.4391 10.1437 70.3656 9.58043C71.2898 9.01716 72.3842 8.73438 73.6487 8.73438C74.6464 8.73438 75.527 8.93209 76.288 9.32753C77.049 9.72298 77.6444 10.2679 78.0744 10.9599C78.5043 11.6519 78.7204 12.4428 78.7204 13.3279Z" fill="black"/>
<path d="M91.6993 6.24493L93.1064 6.76222L89.2485 18.453C89.1635 18.7105 89.0991 18.9358 89.0623 19.1312C89.0255 19.3266 89.0048 19.5129 89.0048 19.6922V20.2072C89.0048 20.4739 88.945 20.6785 88.8232 20.821C88.7036 20.9636 88.5381 21.0348 88.3335 21.0348H86.1655C85.9494 21.0348 85.7815 20.9636 85.6551 20.821C85.5309 20.6785 85.4689 20.4739 85.4689 20.2072V19.6922C85.4689 19.5451 85.4505 19.3933 85.4114 19.2347C85.3723 19.076 85.3148 18.8875 85.2366 18.6737L80.9535 5.49773C80.8592 5.22184 80.7535 5.01722 80.6385 4.88388C80.5212 4.75053 80.3649 4.64477 80.1672 4.5666L79.6499 4.41257C79.4683 4.34359 79.3303 4.24703 79.2315 4.12288C79.1326 3.99873 79.082 3.84929 79.082 3.67686C79.082 3.45385 79.1533 3.27912 79.2958 3.15497C79.4384 3.03083 79.6499 2.96875 79.935 2.96875H85.0182C85.3102 2.96875 85.524 3.03083 85.6574 3.15497C85.7907 3.27912 85.8574 3.45385 85.8574 3.67686C85.8574 4.03092 85.6597 4.26083 85.2642 4.37348L84.386 4.50223C84.1538 4.5712 84.0135 4.69535 83.9676 4.87698C83.9193 5.05861 83.9676 5.37128 84.117 5.8196L88.3496 18.9818L87.2138 19.8324L91.7039 6.24493H91.6993ZM99.8541 3.67686C99.8541 3.45385 99.9254 3.27912 100.068 3.15497C100.21 3.03083 100.422 2.96875 100.707 2.96875H104.59C104.882 2.96875 105.098 3.03312 105.236 3.16187C105.374 3.29062 105.443 3.46305 105.443 3.67916C105.443 3.86079 105.393 4.00333 105.289 4.11139C105.186 4.21944 105.027 4.31601 104.811 4.40107L104.294 4.55511C104.071 4.63328 103.889 4.76203 103.751 4.94135C103.613 5.12298 103.475 5.42646 103.337 5.85638L99.3621 18.4507C99.284 18.7082 99.2242 18.9335 99.1805 19.1289C99.1368 19.322 99.1161 19.5106 99.1161 19.6899V20.1934C99.1161 20.4693 99.0564 20.6785 98.9345 20.8187C98.815 20.9613 98.654 21.0326 98.4563 21.0326H96.2745C96.0584 21.0326 95.8882 20.9613 95.7595 20.8187C95.6307 20.6762 95.5664 20.4693 95.5664 20.1934V19.6899C95.5664 19.5428 95.548 19.391 95.5089 19.2324C95.4698 19.0737 95.4169 18.8829 95.348 18.6576L91.2441 5.49543C91.1499 5.20345 91.0579 4.98274 90.9659 4.83789C90.8763 4.69075 90.7406 4.585 90.559 4.51602L90.044 4.36199C89.8716 4.29301 89.7336 4.20565 89.6302 4.09759C89.5267 3.98954 89.4761 3.84929 89.4761 3.67916C89.4761 3.45615 89.5474 3.28142 89.6899 3.15727C89.8325 3.03312 90.044 2.97105 90.3291 2.97105H95.2192C95.5112 2.97105 95.7273 3.03312 95.8653 3.15727C96.0032 3.28142 96.0722 3.45615 96.0722 3.67916C96.0722 3.86079 96.0193 4.00793 95.9112 4.12518C95.8032 4.24244 95.6468 4.3344 95.4399 4.40337L94.5364 4.54591C94.3203 4.59649 94.1915 4.71374 94.1501 4.89537C94.1065 5.077 94.1547 5.38507 94.2927 5.8242L98.3712 18.9864L97.339 19.837L101.79 5.73223C101.91 5.34599 101.942 5.0655 101.887 4.89307C101.831 4.72064 101.647 4.59189 101.337 4.50683L100.42 4.36429C100.247 4.30451 100.109 4.21715 100.006 4.10679C99.9024 3.99414 99.8518 3.85389 99.8518 3.68146L99.8541 3.67686Z" fill="black"/>
<path d="M109.366 9.59831V18.6452C109.366 18.9463 109.416 19.167 109.52 19.3096C109.623 19.4521 109.768 19.5533 109.959 19.6131L110.409 19.7418C110.582 19.82 110.715 19.9096 110.809 20.0131C110.904 20.1166 110.952 20.2499 110.952 20.4131C110.952 20.6109 110.89 20.7649 110.763 20.8707C110.639 20.9787 110.455 21.0316 110.214 21.0316H105.813C105.581 21.0316 105.4 20.9787 105.271 20.8707C105.142 20.7626 105.078 20.6109 105.078 20.4131C105.078 20.2499 105.124 20.1166 105.213 20.0131C105.303 19.9096 105.434 19.82 105.607 19.7418L106.085 19.6131C106.273 19.5533 106.42 19.4521 106.524 19.3096C106.627 19.167 106.678 18.9463 106.678 18.6452V11.948C106.678 11.6721 106.632 11.4767 106.542 11.3617C106.453 11.2444 106.322 11.1709 106.149 11.1364L105.363 11.0973C105.209 11.0467 105.085 10.9732 104.995 10.8789C104.905 10.7846 104.859 10.6651 104.859 10.5179C104.859 10.3639 104.912 10.2283 105.02 10.111C105.128 9.99375 105.294 9.89719 105.517 9.82132L107.427 9.14999C107.685 9.05573 107.913 8.97756 108.113 8.91779C108.31 8.85801 108.49 8.82812 108.655 8.82812C108.878 8.82812 109.053 8.8971 109.177 9.03504C109.301 9.17299 109.363 9.36151 109.363 9.60291L109.366 9.59831Z" fill="black"/>
<path d="M116.396 9.65148L116.525 12.5161V18.6454C116.525 18.9374 116.585 19.165 116.707 19.3283C116.826 19.4915 117.008 19.5858 117.249 19.6134L118.295 19.7421C118.518 19.7674 118.682 19.841 118.785 19.9605C118.888 20.0801 118.939 20.2318 118.939 20.4111C118.939 20.6089 118.875 20.7629 118.746 20.8686C118.617 20.9767 118.436 21.0296 118.203 21.0296H113.017C112.784 21.0296 112.603 20.9767 112.474 20.8686C112.345 20.7606 112.281 20.6089 112.281 20.4111C112.281 20.2479 112.327 20.1146 112.417 20.0111C112.506 19.9076 112.637 19.818 112.81 19.7398L113.288 19.6111C113.476 19.5513 113.624 19.4501 113.727 19.3076C113.83 19.165 113.881 18.9443 113.881 18.6431V11.946C113.881 11.6701 113.835 11.4746 113.745 11.3597C113.656 11.2424 113.525 11.1689 113.352 11.1344L112.566 11.0953C112.412 11.0447 112.288 10.9711 112.198 10.8769C112.108 10.7826 112.062 10.6631 112.062 10.5159C112.062 10.3619 112.115 10.2262 112.223 10.109C112.331 9.99174 112.497 9.89518 112.72 9.81931L114.642 9.14798C114.874 9.06292 115.083 8.98705 115.267 8.92268C115.451 8.8583 115.605 8.82611 115.725 8.82611C115.913 8.82611 116.067 8.88819 116.182 9.01234C116.3 9.13649 116.369 9.3503 116.396 9.65148ZM115.971 14.2703C115.971 13.084 116.153 12.0747 116.514 11.2447C116.874 10.4148 117.353 9.78713 117.946 9.3618C118.539 8.93647 119.185 8.72266 119.882 8.72266C120.622 8.72266 121.206 8.94337 121.636 9.38709C122.066 9.83081 122.282 10.4378 122.282 11.2126C122.282 11.8057 122.16 12.2517 121.914 12.5483C121.668 12.8449 121.339 12.9943 120.928 12.9943C120.516 12.9943 120.199 12.884 119.978 12.6656C119.76 12.4472 119.649 12.1483 119.649 11.7689V11.3551C119.649 11.0539 119.574 10.8401 119.424 10.716C119.275 10.5918 119.07 10.5297 118.81 10.5297C118.431 10.5297 118.068 10.67 117.721 10.9482C117.371 11.2286 117.086 11.6425 116.863 12.1943C116.64 12.746 116.527 13.4289 116.527 14.245L115.973 14.2703H115.971Z" fill="black"/>
<path d="M134.4 13.3279C134.4 13.8452 134.251 14.2361 133.954 14.5027C133.657 14.7694 133.23 14.9028 132.671 14.9028H124.735V13.8061H130.825C131.368 13.8061 131.639 13.5647 131.639 13.0842C131.639 12.2152 131.388 11.514 130.892 10.9806C130.393 10.4472 129.747 10.1805 128.956 10.1805C128.319 10.1805 127.749 10.3506 127.245 10.6909C126.742 11.0311 126.351 11.5117 126.071 12.137C125.79 12.76 125.652 13.5026 125.652 14.3625C125.652 15.9627 126.05 17.1858 126.845 18.0341C127.641 18.8825 128.675 19.3055 129.949 19.3055C130.827 19.3055 131.563 19.1078 132.156 18.7123C132.749 18.3169 133.184 17.8571 133.46 17.3306C133.579 17.1927 133.68 17.0915 133.763 17.0271C133.846 16.9627 133.938 16.9352 134.041 16.9421C134.161 16.9421 134.258 16.988 134.331 17.0777C134.405 17.1674 134.441 17.303 134.441 17.4846C134.416 18.1468 134.184 18.7698 133.745 19.3561C133.306 19.9423 132.701 20.416 131.931 20.7815C131.161 21.1471 130.269 21.331 129.252 21.331C127.997 21.331 126.912 21.0712 126.002 20.5493C125.089 20.0297 124.385 19.3032 123.891 18.3744C123.397 17.4456 123.148 16.3742 123.148 15.1603C123.148 13.9464 123.399 12.8451 123.903 11.8772C124.406 10.9093 125.119 10.1437 126.045 9.58043C126.969 9.01716 128.064 8.73438 129.328 8.73438C130.326 8.73438 131.207 8.93209 131.968 9.32753C132.729 9.72298 133.324 10.2679 133.754 10.9599C134.184 11.6519 134.4 12.4428 134.4 13.3279Z" fill="black"/>
<path d="M107.688 7.86411C107.12 7.86411 106.66 7.70777 106.306 7.3928C105.952 7.07783 105.777 6.67319 105.777 6.17429C105.777 5.67539 105.954 5.28455 106.306 4.97418C106.658 4.6638 107.12 4.50977 107.688 4.50977C108.256 4.50977 108.732 4.6638 109.088 4.97418C109.444 5.28455 109.624 5.68459 109.624 6.17429C109.624 6.664 109.444 7.08013 109.088 7.3928C108.732 7.70777 108.265 7.86411 107.688 7.86411Z" fill="#FF4D07"/>
</g>
<defs>
<clipPath id="clip0_614_5191">
<rect width="134.438" height="24" fill="white"/>
</clipPath>
</defs>
</svg>
